- 
http://www.Speed.Cd
 
http://www.Speed.Cd       the fast  and The Hottest Private Tracker on the net

Please Seed back to make the speed Faster!!
 ............ NFO .............
-General
Unique ID                                : 276800575005457474763045026743682693864 (0xD03DDA02A1CC9880A270F47282E57AE8)
Complete name                            : E:UploadsThe.Big.Bang.Theory.S06E08.1080p.WEB-DL.DD5.1.H.264The.Big.Bang.Theory.S06E08.The.43.Peculiarity.1080p.WEB-DL.DD5.1.H.264.mkv
Format                                   : Matroska
Format version                           : Version 2
File size                                : 810 MiB
Duration                                 : 21mn 24s
Overall bit rate                         : 5 287 Kbps
Encoded date                             : UTC 2012-11-17 16:03:37
Writing application                      : mkvmerge v5.7.0 ('The Whirlwind') built on Jul 15 2012 00:01:52
Writing library                          : libebml v1.2.2 + libmatroska v1.3.0

Video
ID                                       : 1
Format                                   : AVC
Format/Info                              : Advanced Video Codec
Format profile                           : High@L4.0
Format settings, CABAC                   : Yes
Format settings, ReFrames                : 4 frames
Codec ID                                 : V_MPEG4/ISO/AVC
Duration                                 : 21mn 24s
Bit rate                                 : 4 798 Kbps
Width                                    : 1 920 pixels
Height                                   : 1 080 pixels
Display aspect ratio                     : 16:9
Frame rate mode                          : Constant
Frame rate                               : 23.976 fps
Color space                              : YUV
Chroma subsampling                       : 4:2:0
Bit depth                                : 8 bits
Scan type                                : Progressive
Bits/(Pixel*Frame)                       : 0.097
Stream size                              : 735 MiB (91%)
Title                                    : Video
Language                                 : English
Default                                  : Yes
Forced                                   : Yes
Color primaries                          : BT.709
Transfer characteristics                 : BT.709
Matrix coefficients                      : BT.709

Audio
ID                                       : 2
Format                                   : AC-3
Format/Info                              : Audio Coding 3
Mode extension                           : CM (complete main)
Format settings, Endianness              : Big
Codec ID                                 : A_AC3
Duration                                 : 21mn 24s
Bit rate mode                            : Constant
Bit rate                                 : 384 Kbps
Channel(s)                               : 6 channels
Channel positions                        : Front: L C R, Side: L R, LFE
Sampling rate                            : 48.0 KHz
Bit depth                                : 16 bits
Compression mode                         : Lossy
Stream size                              : 58.8 MiB (7%)
Title                                    : English 5.1
Language                                 : English
Default                                  : Yes
Forced                                   : Yes